<svg width="32" height="32" viewBox="0 0 32 32" fill="none" xmlns="http://www.w3.org/2000/svg">
<rect width="32" height="32" rx="5" fill="#D44646"/>
<path d="M26.4821 10.8655C25.7935 9.07756 24.0692 6.68869 19.7567 5.4588C16.8749 4.63763 13.8454 4.92504 11.2276 6.27064C8.56183 7.64051 6.56618 9.99392 5.60804 12.8979C3.60685 18.9559 6.70833 25.4805 12.5199 27.442C13.6257 27.8152 14.7796 28 15.9334 28C17.7998 28 19.6681 27.5166 21.3444 26.5704C21.5585 26.4491 21.636 26.1748 21.516 25.9583C21.3961 25.7418 21.1247 25.6634 20.9105 25.7847C18.3795 27.2124 15.4995 27.498 12.8005 26.5872C7.45601 24.7844 4.6056 18.7711 6.45172 13.1816C8.27199 7.6685 13.8879 4.72161 19.5149 6.32476C22.6496 7.21872 24.7726 8.90026 25.6532 11.1921C26.6353 13.747 25.884 16.4569 24.8538 18.1403L24.7744 18.271C24.2354 19.1668 22.9708 21.2626 20.3733 21.2645H20.3715C19.9432 21.2645 19.657 21.1563 19.4982 20.9323C19.1807 20.4844 19.3709 19.624 19.4687 19.331C19.4742 19.318 21.289 11.7314 21.289 11.7314C21.3462 11.4907 21.2004 11.2481 20.9622 11.1883C20.7222 11.1305 20.4841 11.2779 20.425 11.5187L20.0152 13.2357C19.6256 11.989 18.8373 10.9999 17.7204 10.5389C15.3519 9.56093 12.3907 11.3209 11.1224 14.4618C9.85412 17.6028 10.7495 20.9547 13.1181 21.9327C13.5611 22.1155 14.0263 22.2033 14.4971 22.2033C15.8909 22.2033 17.3327 21.4381 18.4367 20.141C18.4256 20.5721 18.4958 21.0555 18.7746 21.453C19.1069 21.9252 19.6441 22.1641 20.3733 22.1641H20.3751C23.4711 22.1622 24.9701 19.6744 25.535 18.7394L25.6107 18.6125C26.7535 16.7462 27.5842 13.7284 26.4821 10.8655ZM13.454 21.1021C11.5396 20.3108 10.8621 17.4853 11.9458 14.8034C12.8374 12.5974 14.6448 11.166 16.3229 11.166C16.6866 11.166 17.0429 11.2331 17.3826 11.3731C18.9296 12.0114 19.6681 13.9785 19.3229 16.1247L19.0755 17.1549C19.0201 17.3266 18.9592 17.4983 18.889 17.67C17.809 20.3538 15.3685 21.8935 13.454 21.1021Z" fill="white"/>
</svg>
