<svg width="32" height="33" viewBox="0 0 32 33" fill="none" xmlns="http://www.w3.org/2000/svg">
<path d="M28.1199 32.0157H3.88009C1.73711 32.0157 0 30.2785 0 28.1353V3.88039C0 1.73725 1.73711 0 3.88009 0H28.1199C30.2629 0 32 1.73725 32 3.88039V28.1353C32 30.2785 30.2629 32.0157 28.1199 32.0157Z" fill="#1E4E9C"/>
<path d="M24.658 20.1973L25.5119 15.3936H20.5482V12.191C20.6548 10.2161 22.096 10.2161 22.096 10.2161H25.5119V5.73267H20.5482C15.1632 5.73267 15.6381 10.7501 15.6381 10.7501V15.5002H11.6353V20.304H15.6381V32.0055H20.5482V20.1973H24.658Z" fill="white"/>
</svg>
