<svg width="32" height="33" viewBox="0 0 32 33" fill="none" xmlns="http://www.w3.org/2000/svg">
<path d="M28.1199 32.0157H3.88009C1.73711 32.0157 0 30.2785 0 28.1353V3.88039C0 1.73725 1.73711 0 3.88009 0H28.1199C30.2629 0 32 1.73725 32 3.88039V28.1353C32 30.2785 30.2625 32.0157 28.1199 32.0157Z" fill="url(#paint0_linear)"/>
<path d="M21.687 10.9335C22.2375 10.9335 22.6839 10.4871 22.6839 9.93654C22.6839 9.38593 22.2375 8.93958 21.687 8.93958C21.1364 8.93958 20.6901 9.38593 20.6901 9.93654C20.6901 10.4871 21.1364 10.9335 21.687 10.9335Z" fill="white"/>
<path d="M11.2542 27.3382C7.56384 27.3382 4.56202 24.3357 4.56202 20.6455V11.5831C4.56202 7.89243 7.56425 4.89038 11.2542 4.89038H20.3155C24.0059 4.89038 27.0077 7.89285 27.0077 11.5831V20.6451C27.0077 24.3357 24.0054 27.3378 20.3155 27.3378H11.2542V27.3382ZM11.2542 6.51603C8.46029 6.51603 6.18754 8.78896 6.18754 11.5831V20.6451C6.18754 23.4392 8.46029 25.7122 11.2542 25.7122H20.3155C23.1094 25.7122 25.3822 23.4392 25.3822 20.6451V11.5831C25.3822 8.78896 23.1094 6.51603 20.3155 6.51603H11.2542Z" fill="white"/>
<path d="M15.7845 21.682C12.7149 21.682 10.2173 19.1846 10.2173 16.1144C10.2173 13.0441 12.7145 10.5468 15.7845 10.5468C18.8545 10.5468 21.3517 13.0441 21.3517 16.1144C21.3517 19.1846 18.8545 21.682 15.7845 21.682ZM15.7845 12.1728C13.6113 12.1728 11.8432 13.9411 11.8432 16.1144C11.8432 18.2877 13.6113 20.0559 15.7845 20.0559C17.9576 20.0559 19.7258 18.2877 19.7258 16.1144C19.7258 13.9411 17.9581 12.1728 15.7845 12.1728Z" fill="white"/>
<defs>
<linearGradient id="paint0_linear" x1="1.13311" y1="30.8758" x2="30.869" y2="1.1422" gradientUnits="userSpaceOnUse">
<stop stop-color="#FFD504"/>
<stop offset="0.226" stop-color="#EB5B28"/>
<stop offset="0.4624" stop-color="#E7267A"/>
<stop offset="0.6956" stop-color="#64328A"/>
<stop offset="1" stop-color="#28285B"/>
</linearGradient>
</defs>
</svg>
