<svg width="32" height="32" viewBox="0 0 32 32" fill="none" xmlns="http://www.w3.org/2000/svg">
<rect width="32" height="32" rx="5" fill="#D44646"/>
<path d="M20.8616 26.8289C19.3305 26.8289 17.7994 26.2465 16.6328 25.0799L6.74856 15.1956C4.41715 12.8642 4.41715 9.06945 6.74856 6.73803L8.16243 5.32416C8.36939 5.11721 8.64593 5.00183 8.94079 5.00183C9.23382 5.00183 9.51037 5.11538 9.71915 5.32416L13.8161 9.42109C14.023 9.62804 14.1384 9.90459 14.1384 10.1994C14.1384 10.4943 14.0249 10.769 13.8161 10.9778L12.0524 12.7415C11.6074 13.1865 11.6074 13.9099 12.0524 14.355L17.4753 19.7779C17.9203 20.2229 18.6456 20.2229 19.0888 19.7779L20.8525 18.0142C21.281 17.5856 21.9788 17.5856 22.4092 18.0142L26.5061 22.1111C26.9347 22.5397 26.9347 23.2393 26.5061 23.6678L25.0922 25.0817C23.9238 26.2465 22.3927 26.8289 20.8616 26.8289ZM8.94079 5.88275C8.88402 5.88275 8.82908 5.90473 8.78695 5.94685L7.37308 7.36072C5.38598 9.34783 5.38598 12.5821 7.37308 14.5711L17.2573 24.4553C18.2207 25.4187 19.5009 25.948 20.8616 25.948C22.2242 25.948 23.5044 25.4168 24.4659 24.4553L25.8797 23.0415C25.964 22.9572 25.964 22.818 25.8797 22.732L21.7828 18.635C21.6986 18.5508 21.5594 18.5508 21.4733 18.635L19.7096 20.3987C18.9203 21.1881 17.6365 21.1881 16.8471 20.3987L11.4242 14.9758C10.6349 14.1865 10.6349 12.9026 11.4242 12.1133L13.1879 10.3496C13.2721 10.2654 13.2721 10.1262 13.1879 10.0401L9.09097 5.94319C9.05251 5.90473 8.99574 5.88275 8.94079 5.88275Z" fill="white"/>
<path d="M26.3852 14.4649C26.1416 14.4649 25.9438 14.2671 25.9438 14.0235C25.9438 9.53463 22.292 5.88275 17.8031 5.88275C17.5595 5.88275 17.3617 5.68496 17.3617 5.44137C17.3617 5.19779 17.5595 5 17.8031 5C22.7773 5 26.8248 9.04747 26.8248 14.0217C26.8266 14.2671 26.6288 14.4649 26.3852 14.4649Z" fill="white"/>
<path d="M23.3267 14.465C23.0832 14.465 22.8854 14.2672 22.8854 14.0236C22.8854 11.2215 20.6052 8.94134 17.8031 8.94134C17.5596 8.94134 17.3618 8.74355 17.3618 8.49997C17.3618 8.25639 17.5596 8.05859 17.8031 8.05859C21.0924 8.05859 23.7681 10.7343 23.7681 14.0236C23.7681 14.2672 23.5703 14.465 23.3267 14.465Z" fill="white"/>
<path d="M20.2682 14.4648C20.0247 14.4648 19.8269 14.267 19.8269 14.0234C19.8269 12.9081 18.9185 11.9997 17.8031 11.9997C17.5596 11.9997 17.3618 11.8019 17.3618 11.5583C17.3618 11.3147 17.5596 11.1169 17.8031 11.1169C19.4056 11.1169 20.7096 12.4209 20.7096 14.0234C20.7096 14.267 20.5118 14.4648 20.2682 14.4648Z" fill="white"/>
</svg>
