<svg width="32" height="33" viewBox="0 0 32 33" fill="none" xmlns="http://www.w3.org/2000/svg">
<path d="M28.1146 32.0025H3.88475C1.74266 32.0025 0.00626373 30.266 0.00626373 28.1237V3.87879C0.00626373 1.73653 1.74266 0 3.88475 0H28.1146C30.2567 0 31.9931 1.73653 31.9931 3.87879V28.1237C31.9931 30.2656 30.2567 32.0025 28.1146 32.0025Z" fill="#55B6E7"/>
<path d="M27.228 7.26074H5.75372V24.6372H27.228V7.26074Z" fill="white"/>
<path d="M21.7841 10.9989C21.7514 10.9989 18.6447 12.9705 12.4642 16.9137L13.7515 21.2152L14.0449 18.4941C19.3565 13.6927 22.0146 11.2757 22.0204 11.243C22.0257 11.2104 22.0286 11.1889 22.0286 11.1778C22.0286 11.0584 21.9468 10.9989 21.7841 10.9989ZM21.7841 10.9989C21.7514 10.9989 18.6447 12.9705 12.4642 16.9137L13.7515 21.2152L14.0449 18.4941C19.3565 13.6927 22.0146 11.2757 22.0204 11.243C22.0257 11.2104 22.0286 11.1889 22.0286 11.1778C22.0286 11.0584 21.9468 10.9989 21.7841 10.9989ZM29.8331 7.97615C28.388 5.40709 26.3921 3.43547 23.8452 2.06087C21.2978 0.687093 18.6773 0 15.9837 0C13.2896 0 10.6691 0.687093 8.12218 2.06087C5.57481 3.43547 3.58434 5.40709 2.15077 7.97615C0.716787 10.5452 0 13.2258 0 16.0176C0 18.7874 0.703154 21.4383 2.10987 23.9693C3.51659 26.5004 5.49053 28.472 8.03254 29.8842C10.5741 31.296 13.2244 32.0025 15.9837 32.0025C18.7641 32.0025 21.4255 31.296 23.9675 29.8842C26.5091 28.472 28.483 26.5004 29.8901 23.9693C31.2964 21.4383 32 18.7874 32 16.0176C32 13.2258 31.2774 10.5452 29.8331 7.97615ZM25.3523 8.97807L22.4195 23.1054C22.2997 23.5839 22.0014 23.8227 21.5234 23.8227C21.3495 23.8227 21.1755 23.7681 21.002 23.6595L16.6678 20.4822L14.2564 22.7633C14.137 22.8831 13.9957 22.9426 13.8329 22.9426C13.4962 22.9426 13.2731 22.7906 13.1649 22.4865L11.4541 17.3372L7.20131 16.0176C6.92988 15.9197 6.77785 15.7296 6.74521 15.447C6.74521 15.1429 6.89188 14.9367 7.1852 14.8281C18.8186 10.4828 24.6681 8.30998 24.733 8.30998C24.885 8.30998 25.0288 8.36989 25.1647 8.4893C25.3006 8.60912 25.363 8.7719 25.3523 8.97807ZM21.7841 10.9989C21.7514 10.9989 18.6447 12.9705 12.4642 16.9137L13.7515 21.2152L14.0449 18.4941C19.3565 13.6927 22.0146 11.2757 22.0204 11.243C22.0257 11.2104 22.0286 11.1889 22.0286 11.1778C22.0286 11.0584 21.9468 10.9989 21.7841 10.9989Z" fill="#55B6E7"/>
</svg>
