<svg width="32" height="33" viewBox="0 0 32 33" fill="none" xmlns="http://www.w3.org/2000/svg">
<path d="M28.1199 32.0157H3.88009C1.73711 32.0157 0 30.2785 0 28.1353V3.88039C0 1.73725 1.73711 0 3.88009 0H28.1199C30.2629 0 32 1.73725 32 3.88039V28.1353C32 30.2785 30.2629 32.0157 28.1199 32.0157Z" fill="#4FAE32"/>
<path d="M16.0829 27.2058C14.0792 27.2058 12.1218 26.6767 10.402 25.6727L5.15017 27.1049L6.86786 22.4326C6.24584 21.5534 5.75525 20.5949 5.40724 19.5777C5.00593 18.4046 4.80258 17.1758 4.80258 15.925C4.80258 14.4023 5.10099 12.925 5.68912 11.5338C6.25741 10.1904 7.07038 8.98389 8.10611 7.94808C9.14185 6.91226 10.3483 6.09881 11.6915 5.53089C13.0827 4.9423 14.5598 4.64429 16.0824 4.64429C17.6051 4.64429 19.0822 4.94272 20.4734 5.53089C21.8166 6.09923 23.023 6.91226 24.0588 7.94808C25.0945 8.98389 25.9075 10.1904 26.4758 11.5338C27.0643 12.925 27.3627 14.4023 27.3627 15.925C27.3627 17.4478 27.0643 18.925 26.4758 20.3163C25.9075 21.6596 25.0945 22.8662 24.0588 23.9016C23.023 24.9374 21.817 25.7508 20.4734 26.3188C19.0826 26.9078 17.6055 27.2058 16.0829 27.2058ZM10.6078 24.224L10.8562 24.3782C12.4227 25.3491 14.23 25.8624 16.0829 25.8624C21.5616 25.8624 26.0191 21.4046 26.0191 15.9254C26.0191 10.4463 21.5616 5.98845 16.0829 5.98845C10.6041 5.98845 6.14664 10.4463 6.14664 15.9254C6.14664 18.1107 6.84224 20.184 8.15861 21.9209L8.38055 22.2135L7.31092 25.1234L10.6078 24.224Z" fill="white"/>
<path d="M12.1804 10.0908C12.4309 9.99906 12.7153 10.0379 12.9467 10.164C13.0856 10.2404 13.1906 10.3611 13.3021 10.4707C13.8709 11.0398 14.4404 11.6086 15.0091 12.1778C15.181 12.3522 15.2922 12.5915 15.2893 12.8387C15.2984 13.0429 15.2281 13.2421 15.1203 13.4124C15.0479 13.5079 14.9707 13.6005 14.8826 13.6823C14.6074 13.9588 14.3296 14.2329 14.056 14.5106C14.1337 14.6784 14.2346 14.8338 14.323 14.9959C14.4119 15.1596 14.5127 15.3158 14.6123 15.4729C14.9603 16.0424 15.386 16.5637 15.8617 17.0307C16.2994 17.4602 16.7826 17.845 17.3066 18.1641C17.6158 18.3662 17.9394 18.5439 18.2647 18.7192C18.5722 18.4108 18.8797 18.1029 19.1884 17.7954C19.3021 17.6805 19.438 17.5867 19.5926 17.5366C19.8266 17.4474 20.0968 17.4635 20.3225 17.5709C20.5002 17.6478 20.6275 17.7991 20.7631 17.9314C21.3256 18.4943 21.8893 19.0565 22.4514 19.6203C22.6259 19.7935 22.725 20.0357 22.7321 20.2804V20.3242C22.7267 20.4693 22.6804 20.609 22.6217 20.7408C22.5014 20.9789 22.2832 21.1418 22.101 21.3294C22.0162 21.4075 21.9451 21.5038 21.8393 21.5543C21.5682 21.7543 21.2644 21.9122 20.9429 22.0135C20.7937 22.0709 20.635 22.0941 20.4796 22.1271C20.3076 22.1623 20.1312 22.1681 19.9572 22.1495C19.7369 22.1478 19.5191 22.1135 19.3021 22.0796C19.1095 22.0552 18.9235 21.9965 18.7334 21.9577C18.5457 21.899 18.3535 21.8535 18.1713 21.7787C17.9353 21.7093 17.7142 21.601 17.486 21.5104C17.2823 21.4137 17.0806 21.3129 16.8797 21.2108C16.6028 21.0508 16.3209 20.8975 16.0585 20.714C15.7311 20.5102 15.4302 20.2688 15.1215 20.039C14.7826 19.7649 14.4528 19.4793 14.1395 19.1763C13.8452 18.9093 13.5791 18.6134 13.3013 18.3298C12.5061 17.4779 11.7531 16.5678 11.2175 15.5262C10.9505 14.9909 10.7376 14.4213 10.6512 13.827C10.5756 13.4054 10.5682 12.9722 10.614 12.5473C10.6611 11.9752 10.862 11.4139 11.2046 10.9522C11.2348 10.9067 11.2522 10.8526 11.2931 10.8146C11.4361 10.6711 11.5791 10.5277 11.7221 10.3843C11.8506 10.2541 12.0019 10.1396 12.1804 10.0908Z" fill="white"/>
</svg>
